<svg xmlns="http://www.w3.org/2000/svg" height="1024" preserveAspectRatio="xMidYMid meet" style="display: block;" version="1.1" viewBox="0 0 2048 2048" width="1024">
<g id="muted-sticker-backgrounds" opacity="0.96">
  <path d="M 299 541 C 324 431 435 363 557 386 L 1172 503 C 1298 527 1376 632 1351 745 L 1196 1457 C 1171 1568 1060 1636 938 1613 L 323 1496 C 197 1472 119 1367 144 1254 z" fill="#A9B8A3" stroke="#F4F0E6" stroke-width="42" stroke-linejoin="round" transform="rotate(-8 748 999)"/>
  <path d="M 605 345 C 630 235 741 167 863 190 L 1467 305 C 1593 329 1671 434 1646 547 L 1490 1255 C 1465 1365 1354 1433 1232 1410 L 628 1295 C 502 1271 424 1166 449 1053 z" fill="#B9A5B6" stroke="#F5F0EA" stroke-width="42" stroke-linejoin="round" transform="rotate(11 1047 800)"/>
  <path d="M 723 842 C 749 731 859 663 982 686 L 1641 811 C 1766 835 1845 939 1819 1052 L 1676 1715 C 1652 1827 1541 1895 1418 1872 L 759 1747 C 634 1723 555 1619 581 1506 z" fill="#B7AA8A" stroke="#F5F1E8" stroke-width="42" stroke-linejoin="round" transform="rotate(-5 1200 1279)"/>
</g>
<path d="M 800.958 272.353 C 806.429 271.992 811.908 271.747 817.389 271.616 C 893.548 270.48 973.721 309.08 1016.03 372.386 C 1019.14 377.052 1022.36 381.103 1026.53 384.892 C 1034.4 377.868 1042.29 365.698 1049.38 357.184 C 1070.43 331.696 1096.66 310.973 1126.32 296.389 C 1183.15 268.433 1248.69 263.917 1308.82 283.815 C 1377.89 306.894 1429.46 355.187 1455.84 422.952 C 1462.98 439.098 1464.03 457.602 1470.87 473.589 C 1475.89 485.307 1507.2 487.049 1518.83 492.469 C 1528.17 495.609 1537 498.945 1545.87 503.266 C 1649.23 553.635 1715.88 670.982 1691.56 785.675 C 1688.24 801.319 1683.51 815.688 1678.43 830.968 C 1684.73 837.605 1695.01 845.795 1702.27 851.97 C 1805.32 939.633 1804.99 1109.24 1701 1195.98 C 1686.73 1207.89 1666.41 1217.13 1654.17 1229.17 C 1658.05 1245.67 1662.28 1260.3 1663.99 1277.59 C 1675.34 1388.03 1610.56 1493.28 1512.46 1541.98 C 1491.41 1552.43 1457.81 1555.25 1441.91 1570.04 C 1427.04 1586.32 1432.07 1614.57 1427.22 1633.71 C 1405.71 1718.64 1331.2 1772.01 1247.24 1780.91 C 1151.75 1789.39 1078.31 1741.5 1027.45 1664.54 C 1003.27 1703.8 969.021 1735.88 928.252 1757.43 C 876.362 1783.85 816.171 1788.83 760.645 1771.3 C 699.304 1751.61 642.773 1700.43 629.203 1635.49 C 624.507 1607.71 632.933 1567.48 595.416 1559.55 C 517.041 1542.99 455.32 1492.53 417.763 1421.53 C 386.015 1361.3 379.364 1290.96 399.258 1225.84 C 391.139 1220.15 381.824 1215.24 373.498 1209.5 C 301.938 1160.11 265.532 1081.71 276.438 994.634 C 285.339 923.574 321.106 874.439 376.782 831.226 C 370.183 813.036 362.76 791.457 360.243 772.474 C 346.847 663.568 402.846 557.877 500.479 507.798 C 523.537 496.011 554.141 487.531 577.371 479.816 C 582.663 478.058 590.465 441.659 593.961 431.961 C 602.362 409.209 614.121 387.842 628.846 368.57 C 673.311 311.207 729.298 281.256 800.958 272.353 z M 424.905 1169.58 C 457.482 1113.45 510.883 1070.11 573.915 1052.59 C 594.561 1046.86 616.107 1050.3 624.556 1073.88 C 627.426 1081.89 624.492 1091.55 620.316 1098.28 C 611.081 1114.38 592.979 1114.43 577.149 1120.34 C 568.07 1123.72 556.72 1128.1 548.268 1133.19 C 477.14 1175.81 440.416 1258.09 456.801 1339.74 C 467.551 1393.3 497.29 1435.85 541.701 1467.59 C 596.668 1506.87 710.739 1518.29 752.809 1453.83 C 758.651 1444.78 763.024 1434.86 765.766 1424.44 C 770.87 1404.34 768.757 1383.95 794.024 1377.15 C 810.414 1372.74 832.706 1386.14 834.279 1402.73 C 836.917 1430.54 822.542 1466.62 806.667 1488.62 C 780.567 1524.53 741.196 1548.51 697.319 1555.22 C 690.936 1556.24 685.428 1557 679.075 1558.31 C 685.406 1572.35 690.695 1587.16 691.508 1602.66 C 694.062 1651.29 725.459 1689.39 770.929 1706.54 C 811.388 1722.17 856.437 1720.84 895.908 1702.86 C 939.379 1682.85 965.848 1649.95 982.862 1605.64 C 994.969 1574.1 993.143 1548.03 993.351 1515.14 C 993.592 1486.24 993.583 1457.34 993.324 1428.45 L 993.038 1228.05 L 993.219 1019.62 C 993.4 992.034 993.412 964.442 993.258 936.851 C 993.174 920.239 993.254 903.739 992.269 887.105 C 990.822 862.667 984.32 841.173 974.26 818.946 C 958.96 785.143 929.342 757.9 894.614 744.984 C 879.548 739.38 863.544 737.674 848.051 733.699 C 812.002 722.684 778.94 695.171 762.649 661.022 C 753.53 641.908 743.356 607.968 749.753 586.96 C 755.345 568.596 777.679 558.246 795.514 566.816 C 814.608 575.993 813.858 595.917 816.439 613.907 C 819.728 636.64 835.663 657.007 856.105 666.931 C 872.277 675.068 888.334 675.583 905.387 681.256 C 962.135 700.132 994.474 731.224 1025.81 780.288 C 1054.27 736.894 1094.19 699.471 1145.23 682.929 C 1178.97 671.989 1199.68 675.287 1224.12 643.711 C 1247.12 613.983 1225.77 563.952 1273.94 564.13 C 1309.8 571.524 1308.35 601.343 1301.57 630.339 C 1293.29 665.768 1269.54 698.827 1238.46 717.591 C 1211.87 733.906 1197.67 732.844 1169.85 741.262 C 1113.17 758.416 1075.9 807.528 1061.44 863.455 C 1054.73 889.421 1056.35 912.502 1056.44 939.158 L 1056.61 1002.3 L 1056.86 1217.67 L 1056.57 1442.18 L 1056.51 1506.86 C 1056.47 1554.23 1058.9 1595.92 1084.6 1637.96 C 1107.8 1675.85 1145.2 1702.87 1188.46 1712.97 C 1227.29 1722.06 1274.07 1716.79 1307.75 1695.56 C 1332.03 1680.25 1358.21 1649.13 1362.57 1620.33 C 1366.12 1596.94 1364.83 1582.66 1372.66 1558.31 C 1356.82 1556.72 1344.76 1555.16 1329.59 1550.59 C 1274.32 1533.95 1230.45 1484.78 1220.02 1428.04 C 1218.59 1420.27 1216.88 1413.22 1217.94 1405.18 C 1219.23 1395.8 1224.34 1387.38 1232.07 1381.91 C 1246.34 1371.63 1265.6 1375.35 1276.29 1389.54 C 1283.12 1398.6 1283.34 1414.3 1286.56 1424.83 C 1296.82 1464.96 1328.89 1487.16 1368 1495.74 C 1416.2 1505.84 1466.44 1496.21 1507.49 1469 C 1554.25 1438.6 1583.9 1397.86 1595.42 1342.8 C 1605.98 1290.2 1595.51 1235.55 1566.26 1190.57 C 1544.25 1157.21 1512.27 1130.98 1473.85 1118.95 C 1465.19 1116.23 1446.95 1112.45 1440.43 1107.4 C 1431.19 1100.26 1426.27 1086.34 1428.64 1074.65 C 1430.37 1066.15 1435.63 1058.78 1443.11 1054.39 C 1454.64 1047.55 1466.33 1049.2 1478.59 1052.53 C 1536.72 1068.3 1596.78 1115.06 1627.83 1166.81 C 1667.14 1146.3 1696.59 1110.9 1709.61 1068.51 C 1722.42 1027.39 1715.67 979.672 1695.59 941.982 C 1686.17 924.497 1673.49 908.975 1658.24 896.252 C 1632.27 874.914 1602.24 868.879 1614.37 822.291 C 1618.25 809.708 1622.7 797.738 1625.95 784.938 C 1638.12 737.139 1629.26 688.694 1606.44 645.727 C 1580.79 597.44 1538.94 563.721 1486.59 548.144 C 1460.42 540.359 1428.69 542.479 1414.23 514.007 C 1406.9 499.886 1405.72 478.626 1401.46 462.266 C 1386.72 405.744 1344.59 363.439 1289.49 345.228 C 1242.93 330.086 1192.27 334.004 1148.59 356.125 C 1108.78 376.148 1079.91 412.348 1065.81 454.265 C 1057.88 476.088 1059.52 498.97 1059.45 521.797 C 1059.55 539.99 1060.8 560.113 1041.83 569.499 C 1028.5 576.096 1008.8 573.617 1000.19 561.041 C 988.352 543.732 993.824 507.285 993.016 486.437 C 990.661 425.626 946.629 371.04 890.779 349.445 C 863.242 338.863 833.548 333.083 804.081 336.384 C 755.187 342.468 711.613 364.461 681.187 403.83 C 669.277 419.241 660.196 436.643 654.364 455.226 C 646.938 479.433 648.229 508.25 630.562 526.453 C 615.699 541.766 596.718 541.891 577.258 545.793 C 569.049 547.438 561.003 550.136 553.124 553.112 C 465.588 585.528 412.306 674.387 424.949 766.873 C 426.224 776.805 428.468 788.124 431.367 797.746 C 435.086 810.087 442.21 821.074 443.266 834.249 C 445.986 868.184 416.847 879.849 394.302 898.263 C 351.215 933.454 335.218 988.823 340.53 1042.97 C 344.937 1084.86 365.767 1123.3 398.457 1149.86 C 406.757 1156.6 416.21 1163.28 424.905 1169.58 z" fill="rgb(45,45,45)" transform="translate(0,0)"></path>
<path d="M 590.539 740.141 C 604.97 738.472 617.939 740.672 625.994 754.112 C 632.836 765.529 630.947 779.057 632.7 791.78 C 633.938 800.256 636.23 808.545 639.522 816.453 C 659.303 864.235 693.468 868.113 735.606 882.503 C 769.319 896.68 796.978 926.499 810.105 960.05 C 820.853 987.52 829.137 1016.05 794.31 1028.38 C 758.184 1034.42 756.972 1006.73 748.479 982.493 C 733.755 940.467 697.531 941.952 663.005 926.526 C 623.292 908.898 592.303 876.085 576.973 835.43 C 570.889 819.174 567.351 803.302 565.734 786.042 C 563.595 763.189 567.237 748.078 590.539 740.141 z" fill="rgb(45,45,45)" transform="translate(0,0)"></path>
<path d="M 1447.54 740.16 C 1464.59 738.941 1478.82 742.561 1486.3 759.508 C 1491.54 771.366 1486.22 792.521 1483.91 805.116 C 1472.63 866.507 1427.24 920.601 1365.35 934.953 C 1337 941.526 1311.52 957.424 1303.19 987.106 C 1297.63 1007.88 1298.35 1019.71 1275.15 1027.93 C 1268.36 1029.58 1259.81 1029.68 1253.31 1026.99 C 1246.49 1024.17 1239.33 1016.81 1236.54 1009.96 C 1230.31 994.646 1237.77 970.999 1243.73 956.602 C 1257.29 923.864 1286.81 894.212 1320.26 882.123 C 1333.51 877.336 1347.11 875.216 1360.61 869.82 C 1394.76 856.165 1413.98 825.611 1420.43 790.363 C 1422.4 779.635 1421.72 767.182 1426.25 757.184 C 1431.44 745.743 1436.79 744.141 1447.54 740.16 z" fill="rgb(45,45,45)" transform="translate(0,0)"></path>
<path d="M 856.076 1130.36 C 884.559 1126.58 904.536 1149.17 894.123 1177.06 C 886.675 1197.01 856.904 1194.46 839.017 1201.57 C 815.101 1210.22 795.624 1226.49 788.281 1251.58 C 782.445 1271.52 782.712 1288.92 759.702 1296.78 C 715.172 1302.29 712.033 1263.08 724.636 1231.15 C 748.164 1171.52 793.677 1139.79 856.076 1130.36 z" fill="rgb(45,45,45)" transform="translate(0,0)"></path>
<path d="M 1183.82 1130.28 C 1205.18 1128.4 1240.77 1140.58 1259.67 1151.14 C 1294.5 1170.15 1320.29 1201.55 1331.14 1239.86 C 1338.4 1265.49 1338.24 1289.63 1307.24 1296.97 C 1300.63 1297.59 1293.39 1297.31 1287.55 1294.05 C 1270.68 1284.61 1269.59 1267.29 1264.86 1250.84 C 1256.26 1220.92 1232.14 1203.72 1202.57 1197.47 C 1190.99 1194.93 1182.08 1195.17 1171.3 1189.42 C 1154.55 1180.5 1151.31 1160.44 1160.4 1144.72 C 1165.2 1136.42 1174.51 1132.41 1183.82 1130.28 z" fill="rgb(45,45,45)" transform="translate(0,0)"></path>
<metadata><recraft-signature>{"signed_by": "recraft", "signature_b64": "AJdTe/G4vn9VQVSPmav0RKxoAKAxnoV602dL8JQj/zqfzhRH+xzI08BQtv0atEFr0wT/zjAjTehPcetsDsq/DA==", "signing_algo": "Ed25519", "generation_timestamp": 1783080603, "identifier": "b2a5fe17-ffba-4ba3-849a-ad5185e9abcf"}</recraft-signature></metadata></svg>
